<?xml version="1.0" encoding="utf-8"?>
<!-- Generator: Adobe Illustrator 16.0.0, SVG Export Plug-In . SVG Version: 6.00 Build 0)  -->
<!DOCTYPE svg PUBLIC "-//W3C//DTD SVG 1.1//EN" "http://www.w3.org/Graphics/SVG/1.1/DTD/svg11.dtd">
<svg version="1.1" id="Layer_1" xmlns="http://www.w3.org/2000/svg" xmlns:xlink="http://www.w3.org/1999/xlink" x="0px" y="0px"
	 width="70px" height="70px" viewBox="0 0 70 70" enable-background="new 0 0 70 70" xml:space="preserve">
<g>
	<defs>
		<filter id="Adobe_OpacityMaskFilter" filterUnits="userSpaceOnUse" x="0" y="0" width="70" height="70">
			<feColorMatrix  type="matrix" values="1 0 0 0 0  0 1 0 0 0  0 0 1 0 0  0 0 0 1 0"/>
		</filter>
	</defs>
	<mask maskUnits="userSpaceOnUse" x="0" y="0" width="70" height="70" id="icon-b">
		<g filter="url(#Adobe_OpacityMaskFilter)">
			<path id="icon-a" fill="#FFFFFF" d="M4,0h61c4,0,5,1,5,5v60c0,4-1,5-5,5H4c-3,0-4-1-4-5V5C0,1,1,0,4,0z"/>
		</g>
	</mask>
	<g mask="url(#icon-b)">
		<path fill="#EC40FF" d="M0,0h70v70H0V0z"/>
		<path fill="#FFFFFF" fill-opacity="0.383" d="M4,1h61c2.667,0,4.333,0.667,5,2V0H0v3C0.667,1.667,2,1,4,1z"/>
		<path opacity="0.165" enable-background="new    " d="M26.375,11.5l9.25,1.125L54,18.25l4,6.11v19.558L33.423,69H4.006
			C2.003,69,0,68.854,0,64.911V38.064l12.348-14L26.375,11.5z"/>
		<path fill-opacity="0.383" d="M4,69h61c2.667,0,4.333-1,5-3v4H0v-4C0.667,68,2,69,4,69z"/>
		<g display="none">
			<g id="Layer_1_1_" display="inline">
				<path fill="#FFFFFF" d="M35,8.281C20.246,8.281,8.281,20.246,8.281,35S20.246,61.719,35,61.719S61.719,49.754,61.719,35
					S49.754,8.281,35,8.281z M35,19.297c4.301,0,7.793,3.492,7.793,7.793c0,4.301-3.492,7.793-7.793,7.793s-7.793-3.492-7.793-7.793
					C27.207,22.789,30.699,19.297,35,19.297z M47.598,46.156c0,2.496-2.039,4.535-4.535,4.535H26.938
					c-2.496,0-4.535-2.039-4.535-4.535v-9.609c0-2.496,2.039-4.535,4.535-4.535h0.375c1.582,2.578,4.43,4.3,7.676,4.3
					s6.094-1.729,7.676-4.3h0.375c2.496,0,4.535,2.039,4.535,4.535v9.609H47.598z"/>
			</g>
			<g id="Layer_2" display="inline">
				<g>
					<path fill="#FFFFFF" d="M47.984,8.398H15.289c-3.223,0-5.859,2.637-5.859,5.859v41.484c0,3.223,2.637,5.858,5.859,5.858h32.695
						c3.223,0,5.854-2.644,5.854-5.858V14.258C53.844,11.035,51.207,8.398,47.984,8.398z M31.637,19.297
						c4.3,0,7.792,3.492,7.792,7.793c0,4.301-3.492,7.793-7.792,7.793c-4.301,0-7.793-3.492-7.793-7.793
						C23.844,22.789,27.324,19.297,31.637,19.297z M44.234,46.156c0,2.496-2.039,4.535-4.535,4.535H23.574
						c-2.496,0-4.535-2.039-4.535-4.535v-9.609c0-2.496,2.039-4.535,4.535-4.535h0.375c1.582,2.578,4.43,4.3,7.676,4.3
						s6.094-1.729,7.676-4.3h0.375c2.496,0,4.535,2.039,4.535,4.535v9.609H44.234z"/>
					<g>
						<g>
							<g>
								<g>
									<rect id="SVGID_2_" x="53.375" y="18.242" fill="#FFFFFF" width="7.207" height="32.227"/>
								</g>
								<g>
									<g>
										<g>
											<g>
												<g>
													<g>
														<g>
															<g>
																<defs>
																	<rect id="SVGID_1_" x="53.375" y="18.242" width="7.207" height="32.227"/>
																</defs>
																<clipPath id="SVGID_3_">
																	<use xlink:href="#SVGID_1_"  overflow="visible"/>
																</clipPath>
																<g clip-path="url(#SVGID_3_)">
																	<path fill="#FFFFFF" d="M59.41,19.063h-8.438c-0.646,0-1.18,0.527-1.18,1.172v5.391
																		c0,0.645,0.525,1.172,1.18,1.172h8.438c0.645,0,1.172-0.527,1.172-1.172v-5.391
																		C60.582,19.59,60.055,19.063,59.41,19.063z"/>
																	<path fill="#FFFFFF" d="M56.188,42.266H47.75c-0.645,0-1.172,0.527-1.172,1.172v5.396
																		c0,0.646,0.527,1.172,1.172,1.172h8.438c0.646,0,1.172-0.521,1.172-1.172v-5.396
																		C57.359,42.793,56.832,42.266,56.188,42.266z"/>
																	<path fill="#FFFFFF" d="M58.18,30.664h-8.438c-0.645,0-1.172,0.527-1.172,1.172v5.391
																		c0,0.646,0.527,1.172,1.172,1.172h8.438c0.646,0,1.172-0.521,1.172-1.172v-5.391
																		C59.352,31.191,58.824,30.664,58.18,30.664z"/>
																</g>
															</g>
														</g>
													</g>
												</g>
											</g>
										</g>
									</g>
								</g>
							</g>
						</g>
					</g>
				</g>
			</g>
			<g id="Layer_3" display="inline">
				<g>
					<path fill="#FFFFFF" d="M60.664,17.539h-2.402c-0.375,2.578-2.59,4.57-5.273,4.57c-2.682,0-4.902-1.992-5.271-4.57h-25.43
						c-0.375,2.578-2.59,4.57-5.273,4.57s-4.91-1.992-5.273-4.57H9.336c-0.645,0-1.172,0.527-1.172,1.172v37.734
						c0,0.645,0.527,1.172,1.172,1.172h51.328c0.645,0,1.172-0.527,1.172-1.172V18.711C61.836,18.066,61.309,17.539,60.664,17.539z
						 M23.281,25.508c3.305,0,5.988,2.684,5.988,5.988c0,3.304-2.684,5.988-5.988,5.988c-3.304,0-5.988-2.688-5.988-5.988
						C17.293,28.192,19.977,25.508,23.281,25.508z M32.961,46.156c0,1.922-1.57,3.492-3.492,3.492H17.082
						c-1.922,0-3.492-1.57-3.492-3.492v-7.383c0-1.922,1.57-3.492,3.492-3.492h0.293c1.219,1.979,3.398,3.305,5.906,3.305
						c2.508,0,4.688-1.324,5.906-3.305h0.293c1.922,0,3.492,1.57,3.492,3.492v7.383H32.961z M56.328,45.781
						c0,0.645-0.527,1.172-1.172,1.172H36.992c-0.645,0-1.172-0.527-1.172-1.172v-0.82c0-0.645,0.527-1.172,1.172-1.172h18.164
						c0.645,0,1.172,0.527,1.172,1.172V45.781z M56.328,38.164c0,0.645-0.527,1.172-1.172,1.172H36.992
						c-0.645,0-1.172-0.527-1.172-1.172v-0.82c0-0.645,0.527-1.172,1.172-1.172h18.164c0.645,0,1.172,0.527,1.172,1.172V38.164z
						 M56.328,30.547c0,0.645-0.527,1.172-1.172,1.172H36.992c-0.645,0-1.172-0.527-1.172-1.172v-0.82
						c0-0.645,0.527-1.172,1.172-1.172h18.164c0.645,0,1.172,0.527,1.172,1.172V30.547z"/>
					<path fill="#FFFFFF" d="M17.012,12.383c-2.367,0-4.277,1.91-4.277,4.277c0,2.367,1.91,4.277,4.277,4.277
						c2.367,0,4.277-1.91,4.277-4.277C21.289,14.293,19.379,12.383,17.012,12.383z M17.012,19.414c-1.523,0-2.754-1.23-2.754-2.754
						c0-1.524,1.23-2.754,2.754-2.754c1.524,0,2.754,1.229,2.754,2.754C19.766,18.184,18.535,19.414,17.012,19.414z"/>
					<path fill="#FFFFFF" d="M53.105,12.383c-2.367,0-4.277,1.91-4.277,4.277c0,2.367,1.91,4.277,4.277,4.277
						s4.271-1.91,4.271-4.277C57.382,14.293,55.473,12.383,53.105,12.383z M53.105,19.414c-1.523,0-2.754-1.23-2.754-2.754
						c0-1.524,1.229-2.754,2.754-2.754c1.521,0,2.754,1.229,2.754,2.754C55.859,18.184,54.629,19.414,53.105,19.414z"/>
				</g>
			</g>
			<g id="Layer_4" display="inline">
				<g>
					<path fill="#FFFFFF" d="M46.883,26.41h-7.5c-0.48,0-0.879,0.398-0.879,0.879l0,0c0,0.48,0.398,0.879,0.879,0.879h7.5
						c0.48,0,0.879-0.398,0.879-0.879l0,0C47.762,26.797,47.363,26.41,46.883,26.41z"/>
					<path fill="#FFFFFF" d="M46.883,23.199h-7.5c-0.48,0-0.879,0.398-0.879,0.879s0.398,0.879,0.879,0.879h7.5
						c0.48,0,0.879-0.398,0.879-0.879S47.363,23.199,46.883,23.199z"/>
					<path fill="#FFFFFF" d="M35,8.281C20.246,8.281,8.281,20.246,8.281,35S20.246,61.719,35,61.719S61.719,49.754,61.719,35
						S49.754,8.281,35,8.281z M28.086,27.734c3.34,0,6.047,2.707,6.047,6.047c0,3.34-2.707,6.047-6.047,6.047
						s-6.047-2.707-6.047-6.047C22.039,30.441,24.746,27.734,28.086,27.734z M37.871,48.582c0,1.934-1.582,3.527-3.527,3.527H21.828
						c-1.934,0-3.527-1.582-3.527-3.527v-7.465c0-1.934,1.582-3.527,3.527-3.527h0.293c1.23,2.004,3.434,3.34,5.965,3.34
						c2.531,0,4.734-1.336,5.965-3.34h0.293c1.934,0,3.527,1.582,3.527,3.527V48.582z M52.508,26.527c0,2.098-1.488,3.82-3.305,3.82
						h-7.277l-7.02,2.777l2.098-2.789h0.047c-1.816,0-3.305-1.723-3.305-3.82v-4.84c0-2.098,1.488-3.82,3.305-3.82h12.152
						c1.816,0,3.305,1.723,3.305,3.82V26.527z"/>
					<path fill="#FFFFFF" d="M46.883,20h-7.5c-0.48,0-0.879,0.398-0.879,0.879s0.398,0.879,0.879,0.879h7.5
						c0.48,0,0.879-0.398,0.879-0.879S47.363,20,46.883,20z"/>
				</g>
			</g>
			<g id="Layer_5" display="inline">
				<path fill="#FFFFFF" d="M34.883,8.164c-14.754,0-26.719,11.965-26.719,26.719s11.965,26.719,26.719,26.719
					s26.719-11.965,26.719-26.719S49.637,8.164,34.883,8.164z M29.445,22.203c3.984,0,7.219,3.234,7.219,7.219
					c0,3.985-3.234,7.219-7.219,7.219c-3.985,0-7.219-3.229-7.219-7.219C22.226,25.437,25.461,22.203,29.445,22.203z M41.105,47.082
					c0,2.309-1.895,4.207-4.207,4.207H21.98c-2.309,0-4.207-1.887-4.207-4.207v-8.895c0-2.313,1.887-4.208,4.207-4.208h0.352
					c1.465,2.391,4.102,3.984,7.113,3.984c3.011,0,5.648-1.594,7.114-3.984h0.354c2.312,0,4.207,1.887,4.207,4.208v8.895H41.105z
					 M49.344,29.129v5.988h-2.801v-5.988h-5.988v-2.801h5.988v-5.977h2.801v5.988h5.988v2.801h-5.988V29.129z"/>
			</g>
			<g id="Layer_6" display="inline">
				<path fill="#FFFFFF" d="M35,8.281C20.246,8.281,8.281,20.246,8.281,35S20.246,61.719,35,61.719S61.719,49.754,61.719,35
					S49.754,8.281,35,8.281z M29.563,22.32c3.984,0,7.219,3.234,7.219,7.219s-3.234,7.219-7.219,7.219s-7.219-3.234-7.219-7.219
					S25.578,22.32,29.563,22.32z M41.223,47.199c0,2.309-1.887,4.207-4.207,4.207H22.098c-2.309,0-4.207-1.887-4.207-4.207v-8.895
					c0-2.313,1.887-4.208,4.207-4.208h0.352c1.465,2.39,4.102,3.984,7.113,3.984s5.648-1.596,7.113-3.984h0.352
					c2.313,0,4.207,1.886,4.207,4.208v8.895H41.223z M40.742,29.258v-2.813h14.297v2.813H40.742z"/>
			</g>
			<g id="Layer_7" display="inline">
				<path fill="#FFFFFF" d="M35,8.281C20.246,8.281,8.281,20.246,8.281,35S20.246,61.719,35,61.719S61.719,49.754,61.719,35
					S49.754,8.281,35,8.281z M29.563,22.32c3.984,0,7.219,3.234,7.219,7.219s-3.234,7.219-7.219,7.219s-7.219-3.234-7.219-7.219
					S25.578,22.32,29.563,22.32z M41.223,47.199c0,2.309-1.887,4.207-4.207,4.207H22.098c-2.309,0-4.207-1.887-4.207-4.207v-8.895
					c0-2.313,1.887-4.208,4.207-4.208h0.352c1.465,2.39,4.102,3.984,7.113,3.984s5.648-1.596,7.113-3.984h0.352
					c2.313,0,4.207,1.886,4.207,4.208v8.895H41.223z M48.219,33.031l-1.992,1.992l-1.992-1.992l-4.805-4.805l1.992-1.992
					l4.805,4.805l8.121-8.121l1.992,1.992L48.219,33.031z"/>
			</g>
			<g id="Layer_8" display="inline">
				<g>
					<path fill="#FFFFFF" d="M35,8.281C20.246,8.281,8.281,20.246,8.281,35S20.246,61.719,35,61.719S61.719,49.754,61.719,35
						S49.754,8.281,35,8.281z M44.926,17.07c3.023,0,5.473,2.449,5.473,5.473s-2.441,5.473-5.473,5.473
						c-3.023,0-5.473-2.449-5.473-5.473S41.902,17.07,44.926,17.07z M40.461,36.605c0,3.021-2.449,5.473-5.473,5.473
						s-5.473-2.449-5.473-5.473c0-3.024,2.449-5.479,5.473-5.479S40.461,33.582,40.461,36.605z M25.074,17.07
						c3.023,0,5.473,2.449,5.473,5.473s-2.449,5.473-5.473,5.473c-3.024,0-5.473-2.449-5.473-5.473S22.051,17.07,25.074,17.07z
						 M16.238,35.914v-6.738c0-1.746,1.43-3.188,3.188-3.188h0.27c1.113,1.816,3.105,3.023,5.391,3.023s4.277-1.207,5.391-3.023
						h0.27c1.746,0,3.188,1.43,3.188,3.188v1.289c-2.953,0.504-5.203,3.07-5.203,6.141c0,0.896,0.188,1.734,0.527,2.496h-9.844
						C17.668,39.102,16.238,37.672,16.238,35.914z M43.836,49.742c0,1.746-1.43,3.188-3.188,3.188H29.34
						c-1.746,0-3.188-1.43-3.188-3.188v-6.738c0-1.746,1.43-3.188,3.188-3.188h0.27c1.113,1.813,3.105,3.021,5.391,3.021
						s4.276-1.207,5.392-3.021h0.271c1.746,0,3.188,1.43,3.188,3.188v6.738H43.836z M53.762,35.914c0,1.746-1.43,3.188-3.188,3.188
						h-9.82c0.34-0.762,0.527-1.604,0.527-2.496c0-3.082-2.25-5.637-5.203-6.141v-1.289c0-1.746,1.43-3.188,3.188-3.188h0.271
						c1.111,1.816,3.104,3.023,5.391,3.023s4.277-1.207,5.393-3.023h0.271c1.746,0,3.188,1.43,3.188,3.188v6.738H53.762z"/>
				</g>
			</g>
		</g>
	</g>
</g>
<circle fill="#FFFFFF" cx="35" cy="35" r="26.5"/>
<g>
	<path fill-rule="evenodd" clip-rule="evenodd" d="M40.021,51.246c-8.33,2.247-16.651-1.105-20.646-8.277
		c-4.084-7.334-2.711-16.085,3.443-21.934c5.741-5.456,14.84-6.245,21.739-1.885c6.75,4.263,9.801,12.79,7.298,20.378
		c-1.77-1.232-0.604-2.969-0.69-4.555c-1.826,0-3.58,0-5.354,0c-0.238,1.797-0.47,3.542-0.709,5.343
		c-0.569,0.033-1.03,0.059-1.538,0.089c0.226-1.81,0.442-3.548,0.674-5.401c-2.928,0-5.683,0-8.507,0c0,2.016,0,3.979,0,5.989
		c1.239,0.487,3.215-0.388,3.515,1.927c-1.115-0.091-2.226-0.183-3.458-0.283c0,2.577,0,5.089,0,7.803
		C37.408,49.553,38.914,49.39,40.021,51.246z M34.07,34.98c-2.881,0-5.605,0-8.596,0c0.415,2.48,0.809,4.83,1.193,7.128
		c2.651-0.411,5.023-0.78,7.402-1.149C34.07,38.964,34.07,37.002,34.07,34.98z M35.77,27.352c0,1.985,0,3.972,0,5.959
		c2.83,0,5.553,0,8.541,0c-0.405-2.46-0.792-4.804-1.17-7.096C40.521,26.619,38.191,26.978,35.77,27.352z M34.07,27.348
		c-2.451-0.37-4.788-0.722-7.398-1.115c-0.382,2.26-0.779,4.61-1.195,7.077c3.014,0,5.77,0,8.594,0
		C34.07,31.269,34.07,29.308,34.07,27.348z M18.626,34.961c0.229,3.575,1.36,6.622,3.531,9.305c1.122-0.557,2.152-1.07,3.051-1.518
		c-0.442-2.672-0.86-5.199-1.288-7.787C22.24,34.961,20.524,34.961,18.626,34.961z M22.135,24.073
		c-2.139,2.714-3.307,5.74-3.498,9.24c1.845,0,3.594,0,5.292,0c0.435-2.62,0.86-5.175,1.288-7.756
		C24.225,25.079,23.22,24.596,22.135,24.073z M45.874,33.316c1.688,0,3.438,0,5.278,0c-0.163-3.514-1.375-6.526-3.482-9.251
		c-1.115,0.543-2.146,1.046-3.087,1.503C45.02,28.188,45.44,30.713,45.874,33.316z M35.76,17.923c0,2.684,0,5.157,0,7.889
		c2.267-0.358,4.405-0.696,6.741-1.064C40.904,21.531,39.295,18.856,35.76,17.923z M27.464,43.541
		c1.248,3.736,4.21,6.665,6.556,6.686c0-2.516,0-5.029,0-7.717C31.768,42.864,29.668,43.194,27.464,43.541z M34.067,18.006
		c-2.806,0.497-6.025,3.849-6.475,6.819c2.122,0.314,4.242,0.628,6.475,0.958C34.067,23.056,34.067,20.577,34.067,18.006z
		 M41.21,18.919c-0.061,0.08-0.122,0.16-0.184,0.24c0.977,1.604,1.952,3.209,3,4.932c0.77-0.375,1.602-0.78,2.821-1.375
		C44.765,21.313,42.988,20.116,41.21,18.919z M23.255,22.496c0.035,0.154,0.07,0.308,0.106,0.461
		c0.826,0.383,1.652,0.766,2.408,1.116c1.052-1.713,2.036-3.316,3.02-4.919c-0.042-0.083-0.085-0.167-0.127-0.251
		C26.858,20.1,25.057,21.298,23.255,22.496z M25.754,44.236c-0.813,0.39-1.623,0.775-2.828,1.353
		c2.098,1.413,3.887,2.617,5.677,3.822c0.055-0.089,0.109-0.177,0.164-0.267C27.794,47.562,26.822,45.977,25.754,44.236z"/>
	<path fill-rule="evenodd" clip-rule="evenodd" d="M42.969,48.688c-0.149-0.34-0.286-0.688-0.452-1.022
		c-1.423-2.85-2.845-5.699-4.279-8.542c-0.387-0.768-0.732-1.58,0.241-2.092c0.968-0.507,1.459,0.198,1.853,0.983
		c0.739,1.475,1.503,2.938,2.328,4.544c0.57-1.386,1.457-1.865,2.746-1.18c0.661-1.5,1.169-1.732,2.4-1.399
		c0.726-0.522,1.286-1.244,1.792-1.206c0.543,0.038,1.203,0.694,1.514,1.248c0.826,1.473,1.622,2.989,2.189,4.574
		c0.845,2.355,0.749,4.698-0.909,6.751c-2.059,2.547-5.881,3.109-9.019,1.301c-0.937-0.541-1.759-1.276-2.656-1.888
		c-1.125-0.768-2.312-1.451-3.394-2.272c-0.403-0.307-0.589-0.9-0.874-1.363c0.553-0.286,1.223-0.926,1.636-0.788
		c1.159,0.384,2.222,1.072,3.302,1.678c0.462,0.258,0.873,0.605,1.307,0.913C42.785,48.848,42.877,48.769,42.969,48.688z"/>
	<path fill-rule="evenodd" clip-rule="evenodd" fill="#FFFFFF" d="M34.07,34.98c0,2.021,0,3.983,0,5.979
		c-2.379,0.369-4.751,0.738-7.402,1.149c-0.385-2.298-0.778-4.647-1.193-7.128C28.465,34.98,31.189,34.98,34.07,34.98z"/>
	<path fill-rule="evenodd" clip-rule="evenodd" fill="#FFFFFF" d="M35.77,27.352c2.422-0.374,4.752-0.733,7.371-1.137
		c0.378,2.292,0.765,4.635,1.17,7.096c-2.988,0-5.711,0-8.541,0C35.77,31.323,35.77,29.337,35.77,27.352z"/>
	<path fill-rule="evenodd" clip-rule="evenodd" fill="#FFFFFF" d="M34.07,27.348c0,1.96,0,3.921,0,5.961c-2.824,0-5.58,0-8.594,0
		c0.417-2.466,0.813-4.816,1.195-7.077C29.283,26.626,31.62,26.978,34.07,27.348z"/>
	<path fill-rule="evenodd" clip-rule="evenodd" fill="#FFFFFF" d="M18.626,34.961c1.898,0,3.614,0,5.295,0
		c0.428,2.588,0.846,5.115,1.288,7.787c-0.899,0.447-1.93,0.961-3.051,1.518C19.986,41.583,18.855,38.536,18.626,34.961z"/>
	<path fill-rule="evenodd" clip-rule="evenodd" fill="#FFFFFF" d="M22.135,24.073c1.085,0.523,2.09,1.006,3.083,1.484
		c-0.428,2.581-0.853,5.136-1.288,7.756c-1.698,0-3.447,0-5.292,0C18.828,29.813,19.996,26.787,22.135,24.073z"/>
	<path fill-rule="evenodd" clip-rule="evenodd" fill="#FFFFFF" d="M45.874,33.316c-0.434-2.603-0.854-5.128-1.291-7.749
		c0.94-0.457,1.972-0.96,3.087-1.503c2.107,2.726,3.319,5.738,3.482,9.251C49.312,33.316,47.563,33.316,45.874,33.316z"/>
	<path fill-rule="evenodd" clip-rule="evenodd" fill="#FFFFFF" d="M35.76,17.923c3.535,0.933,5.145,3.608,6.741,6.825
		c-2.336,0.369-4.475,0.706-6.741,1.064C35.76,23.081,35.76,20.607,35.76,17.923z"/>
	<path fill-rule="evenodd" clip-rule="evenodd" fill="#FFFFFF" d="M27.464,43.541c2.204-0.347,4.303-0.677,6.556-1.031
		c0,2.688,0,5.201,0,7.717C31.675,50.206,28.712,47.277,27.464,43.541z"/>
	<path fill-rule="evenodd" clip-rule="evenodd" fill="#FFFFFF" d="M34.067,18.006c0,2.571,0,5.049,0,7.778
		c-2.233-0.331-4.354-0.645-6.475-0.958C28.042,21.855,31.262,18.503,34.067,18.006z"/>
	<path fill-rule="evenodd" clip-rule="evenodd" fill="#FFFFFF" d="M41.21,18.919c1.778,1.197,3.555,2.395,5.638,3.797
		c-1.22,0.594-2.052,1-2.821,1.375c-1.048-1.723-2.023-3.327-3-4.932C41.088,19.079,41.149,18.999,41.21,18.919z"/>
	<path fill-rule="evenodd" clip-rule="evenodd" fill="#FFFFFF" d="M23.255,22.496c1.802-1.198,3.604-2.396,5.406-3.593
		c0.042,0.084,0.085,0.168,0.127,0.251c-0.984,1.603-1.968,3.206-3.02,4.919c-0.756-0.35-1.583-0.732-2.408-1.116
		C23.325,22.803,23.29,22.649,23.255,22.496z"/>
	<path fill-rule="evenodd" clip-rule="evenodd" fill="#FFFFFF" d="M25.754,44.236c1.068,1.74,2.041,3.325,3.013,4.908
		c-0.055,0.09-0.109,0.178-0.164,0.267c-1.79-1.205-3.579-2.409-5.677-3.822C24.131,45.012,24.94,44.626,25.754,44.236z"/>
</g>
</svg>
